# xmcd
#
# Track frame offsets:
#	182
#	13427
#	25402
#	36827
#	45777
#	57152
#	67277
#	75980
#	86432
#	97102
#	106480
#	117407
#	128432
#	138577
#	149202
#	160630
#	172607
#	184677
#	196105
#	207402
#	217857
#	226580
#	239532
#	249152
#	260282
#	269507
#	280077
#
# Disc length: 3867 seconds
# Revision: 0
# Processed by: cddbd v1.5.2PL0 Copyright (c) Steve Scherf et al.
# Submitted via: dBpowerAMP V12.0
#
DISCID=750f191b
DTITLE=Various Artist - A COLLECTION OF RARE SOUL VOL2
DYEAR=1900
DGENRE=Soul
TTITLE0=Natural Four, The - I Thought You Were Mine
TTITLE1=Rose Brooks - I'm Moarnin
TTITLE2=Ann Heyward - Crook His Little Finger
TTITLE3=Terri Goodnight - They Did'nt Know
TTITLE4=Kell Osbourne - Quicksand
TTITLE5=June Jackson - You're Welcome
TTITLE6=Groovers, The - I'm Bashful Guy
TTITLE7=Bobby Mac - Shy Guy
TTITLE8=Eddie Foster - Closer Together
TTITLE9=James Dockery - My Faith In You is All Gone
TTITLE10=Ty Karim - Ain't That Love Enough
TTITLE11=Bruce Coefield - Ain't That Right
TTITLE12=Paris - Sleepless Nights
TTITLE13=Darlettes - Lost
TTITLE14=Tate - Love Shop
TTITLE15=Troy Dodds - Try My Love
TTITLE16=Johnny Summers - I'm Still Yours
TTITLE17=J.D Abram - Doctor Of Love
TTITLE18=Soul Brother Inc - Pyramid
TTITLE19=Capitals, The - Ooh What You're Doing To Me
TTITLE20=Those Two - I Can't Treat Her Bad
TTITLE21=Edwick Rumbold - Specially When
TTITLE22=Lola Sands - To Whom It May Concern
TTITLE23=Faye Ross - Faith Hope and Trust
TTITLE24=Bobby Angelle - Girl Your So Fine
TTITLE25=Little Stanley - The Stran
TTITLE26=Johnny 'Guitar' Watson - Ain't Gonna Move
EXTD=
EXTT0=
EXTT1=
EXTT2=
EXTT3=
EXTT4=
EXTT5=
EXTT6=
EXTT7=
EXTT8=
EXTT9=
EXTT10=
EXTT11=
EXTT12=
EXTT13=
EXTT14=
EXTT15=
EXTT16=
EXTT17=
EXTT18=
EXTT19=
EXTT20=
EXTT21=
EXTT22=
EXTT23=
EXTT24=
EXTT25=
EXTT26=
PLAYORDER=
